<?xml version="1.0" encoding="UTF-8"?>
<svg xmlns="http://www.w3.org/2000/svg" version="1.1" viewBox="0 0 50 50">
  <defs>
    <style>
      .cls-1 {
        fill: #fff;
        stroke: #7a9c3e;
        stroke-miterlimit: 10;
        stroke-width: .2px;
      }

      .cls-2 {
        fill: #7a9c3e;
      }
    </style>
  </defs>
  <!-- Generator: Adobe Illustrator 28.7.0, SVG Export Plug-In . SVG Version: 1.2.0 Build 55)  -->
  <g>
    <g id="Capa_1">
      <path class="cls-2" d="M20.3,4.6l4.4,1.3c.2,0,.4,0,.6,0l4.4-1.3,3.4,3.1c.1.1.3.2.5.2l4.5.7,1.7,4.2c0,.2.2.3.4.4l3.7,2.6-.3,4.6c0,.2,0,.4.1.6l2.2,3.9-2.2,3.9c0,.2-.1.4-.1.6l.3,4.6-3.7,2.6c-.2.1-.3.3-.4.4l-1.7,4.2-4.5.7c-.2,0-.4.1-.5.2l-3.4,3.1-4.4-1.3c-.2,0-.4,0-.6,0l-4.4,1.3-3.4-3.1c-.1-.1-.3-.2-.5-.2l-4.5-.7-1.7-4.2c0-.2-.2-.3-.4-.4l-3.7-2.6.3-4.6c0-.2,0-.4-.1-.6l-2.2-3.9,2.2-3.9c0-.2.1-.4.1-.6l-.3-4.6,3.7-2.6c.2-.1.3-.3.4-.4l1.7-4.2,4.5-.7c.2,0,.4-.1.5-.2l3.4-3.1Z"/>
      <path class="cls-1" d="M20.1,2.5c-.2,0-.5,0-.7.3l-3.6,3.3-4.7.8c-.3,0-.6.3-.8.6l-1.8,4.4-3.9,2.8c-.3.2-.4.5-.4.9l.3,4.8-2.4,4.1c-.2.3-.2.7,0,1l2.4,4.1-.3,4.8c0,.3.1.7.4.9l3.9,2.8,1.8,4.4c.1.3.4.6.8.6l4.7.8,3.6,3.3c.3.2.6.3,1,.2l4.6-1.4,4.6,1.4c.3.1.7,0,1-.2l3.6-3.3,4.7-.8c.3,0,.6-.3.8-.6l1.8-4.4,3.9-2.8c.3-.2.4-.5.4-.9l-.3-4.8,2.4-4.1c.2-.3.2-.7,0-1l-2.4-4.1.3-4.8c0-.3-.1-.7-.4-.9l-3.9-2.8-1.8-4.4c-.1-.3-.4-.6-.8-.6l-4.7-.8-3.6-3.3c-.3-.2-.6-.3-1-.2l-4.6,1.4-4.6-1.4c0,0-.2,0-.3,0ZM20.3,4.6l4.4,1.3c.2,0,.4,0,.6,0l4.4-1.3,3.4,3.1c.1.1.3.2.5.2l4.5.7,1.7,4.2c0,.2.2.3.4.4l3.7,2.6-.3,4.6c0,.2,0,.4.1.6l2.2,3.9-2.2,3.9c0,.2-.1.4-.1.6l.3,4.6-3.7,2.6c-.2.1-.3.3-.4.4l-1.7,4.2-4.5.7c-.2,0-.4.1-.5.2l-3.4,3.1-4.4-1.3c-.2,0-.4,0-.6,0l-4.4,1.3-3.4-3.1c-.1-.1-.3-.2-.5-.2l-4.5-.7-1.7-4.2c0-.2-.2-.3-.4-.4l-3.7-2.6.3-4.6c0-.2,0-.4-.1-.6l-2.2-3.9,2.2-3.9c0-.2.1-.4.1-.6l-.3-4.6,3.7-2.6c.2-.1.3-.3.4-.4l1.7-4.2,4.5-.7c.2,0,.4-.1.5-.2l3.4-3.1ZM34.1,14.5l-11,17-7.3-6.6-1.3,1.5,9.1,8.2,12.2-19-1.7-1.1Z"/>
    </g>
  </g>
</svg>