<?xml version="1.0" encoding="UTF-8"?>
<svg xmlns="http://www.w3.org/2000/svg" version="1.1" viewBox="0 0 50 50">
  <defs>
    <style>
      .cls-1, .cls-2 {
        fill: #fff;
      }

      .cls-2 {
        stroke: #e2068c;
        stroke-miterlimit: 10;
        stroke-width: .2px;
      }

      .cls-3 {
        fill: #e2068c;
      }
    </style>
  </defs>
  <!-- Generator: Adobe Illustrator 28.7.0, SVG Export Plug-In . SVG Version: 1.2.0 Build 55)  -->
  <g>
    <g id="Capa_1">
      <path class="cls-2" d="M6.4,2C3.1,2,.5,4.7.5,8v29c0,3.3,2.6,6,5.9,6h43.1V7H12.1c-.5-2.8-2.8-5-5.7-5ZM6.4,4c2.2,0,3.9,1.8,3.9,4v24.5c-1-1-2.4-1.5-3.9-1.5s-2.9.6-3.9,1.5V8c0-2.2,1.7-4,3.9-4ZM12.3,9h35.3v32H6.4c-2.2,0-3.9-1.8-3.9-4s1.7-4,3.9-4,3.9,1.8,3.9,4h2V9ZM34.8,15l2.7,2.8-5.2,5.3-5.3-5.5-8.5,7.6,1.3,1.5,7.2-6.4,5.4,5.5,6.6-6.7,2.7,2.8v-7h-6.9ZM17.2,32v2h24.5v-2h-24.5Z"/>
      <path class="cls-3" d="M6.4,4c2.2,0,3.9,1.8,3.9,4v24.5c-1-1-2.4-1.5-3.9-1.5s-2.9.6-3.9,1.5V8c0-2.2,1.7-4,3.9-4Z"/>
      <path class="cls-3" d="M12.2,9h35.2v32H6.4c-2.2,0-3.9-1.8-3.9-4s1.7-4,3.9-4,3.9,1.8,3.9,4h2V9Z"/>
      <polygon class="cls-1" points="34.7 15 37.5 17.8 32.2 23.1 26.8 17.6 18.1 25.3 19.4 26.8 26.7 20.4 32.2 25.9 39 19.2 41.7 22 41.7 15 34.7 15"/>
      <rect class="cls-1" x="17" y="32" width="25" height="2"/>
    </g>
  </g>
</svg>