<?xml version="1.0" encoding="UTF-8"?>
<svg id="uuid-7c3d9071-5881-4f1c-951f-2aaa3624950e" data-name="Capa_1" xmlns="http://www.w3.org/2000/svg" viewBox="0 0 47.57 46.6">
  <path d="M13.59,0c-1.85,0-3.65.31-5.34,1.05-.33.13-.56.43-.6.78-.05.35.11.7.39.9.28.21.66.24.98.09,1.41-.62,2.92-.89,4.56-.89,6.47,0,11.65,5.18,11.65,11.65s-5.18,11.65-11.65,11.65S1.94,20.06,1.94,13.59c0-2.95,1.13-5.59,2.91-7.68v2.54c0,.35.18.68.48.85.3.17.68.17.98,0,.3-.18.49-.5.48-.85V2.91H1.26c-.35,0-.68.18-.85.48-.17.3-.17.68,0,.98.18.3.5.49.85.48h1.93C1.25,7.23,0,10.25,0,13.59c0,7.51,6.08,13.59,13.59,13.59s13.59-6.08,13.59-13.59S21.1,0,13.59,0ZM36.89,0c-1.06,0-1.94.88-1.94,1.94v1.94h-9.25c.49.61.93,1.26,1.33,1.94h7.93v1.94c0,1.06.88,1.94,1.94,1.94h1.94c1.06,0,1.94-.88,1.94-1.94v-1.94h4.85v6.8h-16.55c.02.32.05.64.05.97s-.03.65-.05.97h16.55v30.1H4.85v-18.23c-.69-.47-1.33-1.01-1.94-1.58v19.82c0,1.13.82,1.94,1.94,1.94h40.78c1.13,0,1.94-.82,1.94-1.94V5.83c0-1.13-.82-1.94-1.94-1.94h-4.85v-1.94c0-1.06-.88-1.94-1.94-1.94h-1.94ZM36.89,1.94h1.94v5.83h-1.94V1.94ZM13.58,4.84c-.53.01-.96.45-.96.99v7.61c-.03.21,0,.42.11.61.09.17.23.32.4.41l3.77,2.83c.43.32,1.04.24,1.36-.2.32-.43.24-1.04-.2-1.36l-3.49-2.62v-7.28c0-.26-.1-.52-.28-.7-.19-.19-.44-.29-.7-.28ZM28.34,18.45c-.22.67-.49,1.32-.8,1.94h3.53v4.85h-6.8v6.8h-4.85v-4.05c-.63.25-1.28.46-1.94.63v3.42h-4.85v-2.96c-.66-.04-1.31-.11-1.94-.24v11.93h29.13v-22.33h-11.47ZM33.01,20.39h4.85v4.85h-4.85v-4.85ZM26.21,27.18h4.85v4.85h-4.85v-4.85ZM33.01,27.18h4.85v4.85h-4.85v-4.85ZM12.62,33.98h4.85v4.85h-4.85v-4.85ZM19.42,33.98h4.85v4.85h-4.85v-4.85ZM26.21,33.98h4.85v4.85h-4.85v-4.85ZM33.01,33.98h4.85v4.85h-4.85v-4.85Z" fill="#878888"/>
</svg>